<svg width="21" height="20" viewBox="0 0 21 20" fill="#ffffff" xmlns="http://www.w3.org/2000/svg">
<path d="M2.24167 10.8591V17.2041H4.32084V12.9383H12.3458L14.8517 17.2041H17.2242L14.7717 12.9383H17.2775L20.9033 19.3366H13.625L11.1192 15.0708H6.4V19.3366H0.108337V8.72581L15.7575 8.77831C19.8267 8.25498 19.7358 2.68748 15.4408 2.43165L2.24167 2.43415V4.56665H15.8117C15.98 4.56665 16.32 4.88331 16.4158 5.02915C16.7592 5.54748 16.5792 6.31415 16.0108 6.57998C15.9667 6.60081 15.67 6.69998 15.6517 6.69998H0.108337V0.35498H16.2383C16.9975 0.35498 18.4017 1.06165 18.985 1.55415C22.64 4.64248 20.6417 10.5033 15.9708 10.9125C11.395 10.8875 6.80834 10.9716 2.24084 10.86L2.24167 10.8591Z" fill="black"/>
</svg>
