<svg fill="#ffffff" xmlns="http://www.w3.org/2000/svg" enable-background="new 0 0 512 512" viewBox="0 0 512 512" id="dental-record">
  <path d="M371.429,230.93V90.318c0-22.124-17.999-40.123-40.123-40.123h-50.245V40.113c0-5.523-4.477-10-10-10H228.29
			c-6.271-17.658-23.261-30.123-42.575-30.123s-36.304,12.465-42.575,30.123h-42.772c-5.523,0-10,4.477-10,10v10.082H40.123
			C17.999,50.195,0,68.194,0,90.318v381.551c0,22.124,17.999,40.123,40.123,40.123c341.488-0.09,321.389,0.214,323.446-0.235
			C445.743,516.333,512,450.629,512,371.46C512,294.158,449.157,230.93,371.429,230.93z M110.367,50.113h40.556
			c4.975,0,9.193-3.657,9.899-8.582c1.759-12.28,12.461-21.541,24.893-21.541s23.133,9.261,24.893,21.541
			c0.706,4.924,4.924,8.582,9.899,8.582h40.555c0,7.052,0,13.111,0,20.163H110.367C110.367,63.225,110.367,57.165,110.367,50.113z
			 M20,471.868V90.318c0-11.096,9.027-20.123,20.123-20.123h50.245v10.082c0,5.523,4.477,10,10,10h170.694c5.523,0,10-4.477,10-10
			V70.195h50.245c11.096,0,20.123,9.027,20.123,20.123v142.048c-11.18,1.603-21.939,4.524-32.115,8.605h-138.62
			c-5.523,0-10,4.477-10,10s4.477,10,10,10h104.03c-10.929,8.599-20.549,18.787-28.525,30.204H60.204c-5.523,0-10,4.477-10,10
			s4.477,10,10,10h184.34c-4.544,9.529-8.041,19.646-10.353,30.204H60.204c-5.523,0-10,4.477-10,10s4.477,10,10,10h171.1
			c-0.699,9.812-0.415,19.869,1.069,30.204H60.204c-5.523,0-10,4.477-10,10s4.477,10,10,10h176.562
			c3.168,10.645,7.563,20.768,13.027,30.204H60.204c-5.523,0-10,4.477-10,10s4.477,10,10,10h203.618
			c9.996,11.907,21.934,22.142,35.347,30.204H40.123C29.027,491.991,20,482.964,20,471.868z M358.876,491.341
			c-61.316-6.364-107.938-57.745-107.938-119.881c0-66.46,54.07-120.53,120.53-120.53C437.93,250.93,492,305,492,371.46
			C492,440.495,433.551,498.208,358.876,491.341z"></path>
  <path d="M384.936 289.894c-8.557 3.348-18.374 3.348-26.938-.002-34.039-13.294-71.703 10.177-71.834 44.521-.087 23.315 20.793 41.344 24.151 74.302 1.892 18.552 3.054 36.197 12.147 43.344 11.755 9.3 29.638 4.19 34.201-9.687l12.986-39.601c.578-1.772 3.06-1.777 3.645.01l12.985 39.599c2.83 8.605 11.07 14.386 20.504 14.386 24.698 0 21.952-28.955 24.072-34.372 10.988-65.905 26.015-62.786 25.921-87.983C456.645 300.059 418.976 276.6 384.936 289.894zM60.204 175.624h25.143v25.143c0 5.523 4.477 10 10 10s10-4.477 10-10v-25.143h25.143c5.523 0 10-4.477 10-10s-4.477-10-10-10h-25.143v-25.143c0-5.523-4.477-10-10-10s-10 4.477-10 10v25.143H60.204c-5.523 0-10 4.477-10 10S54.681 175.624 60.204 175.624zM180.694 210.766h130.531c5.523 0 10-4.477 10-10v-70.286c0-5.523-4.477-10-10-10H180.694c-5.523 0-10 4.477-10 10v70.286C170.694 206.289 175.171 210.766 180.694 210.766z"></path>
</svg>
