<?xml version="1.0" encoding="iso-8859-1"?>
<!-- Uploaded to: SVG Repo, www.svgrepo.com, Generator: SVG Repo Mixer Tools -->
<svg fill="#ffffff" height="800px" width="800px" version="1.1" id="Capa_1" xmlns="http://www.w3.org/2000/svg" xmlns:xlink="http://www.w3.org/1999/xlink" 
	 viewBox="0 0 490 490" xml:space="preserve">
<g>
	<path d="M489.997,224.578C489.997,100.748,387.555,0,261.635,0C197.757,0,137.339,26.096,94.143,71.942
		c-6.119-6.29-24.466-17.874-46.189-1.983L21.779,90.744c-12.062,9.58-19.196,24.035-21.205,42.961
		c-5.737,54.052,32.086,139.473,96.351,217.625C165.14,434.272,247.793,490,302.599,490h0.005c14.884,0,27.449-3.982,37.344-11.837
		l26.169-20.781c7.427-5.901,12.242-14.53,13.214-23.676c0.569-5.352-0.168-10.611-2.095-15.413
		C447.066,377.986,489.997,304.732,489.997,224.578z M353.415,441.391l-26.164,20.781c-6.195,4.919-14.49,7.412-24.648,7.412h-0.005
		c-48.27,0-126.363-53.962-189.902-131.223c-60.028-72.994-96.929-154.371-91.82-202.502c1.406-13.279,5.986-23.078,13.603-29.124
		l26.169-20.785c8.784-6.647,17.321-2.089,19.49,0.916l49.945,60.731c4.26,5.037,3.102,13.396-3.126,18.428
		c-14.17,11.449-22.959,28.192-25.142,48.768c-3.479,32.809,10.189,71.543,36.567,103.619
		c29.069,35.345,69.245,57.303,104.854,57.297c16.843,0,32.016-4.979,43.869-14.395c6.001-4.76,15.203-4.292,19.49,0.917
		l49.95,60.727C362.236,431.306,357.346,437.622,353.415,441.391z M365.376,401.555l-43.01-52.288
		c-5.771-8.269-25.271-20.127-47.956-3.943c-8.659,6.177-18.817,9.969-31.178,9.969c-29.658,0.005-63.793-19.101-89.079-49.851
		c-22.974-27.933-34.952-61.015-32.036-88.495c1.595-15.008,7.649-27.094,17.541-34.932c8.728-6.915,22.151-26.83,6.195-47.388
		L107.311,87.76c39.448-42.882,95.255-67.343,154.324-67.343c114.659,0,207.945,91.586,207.945,204.162
		C469.58,298.013,429.859,365.099,365.376,401.555z"/>
	<polygon points="297.349,64.381 276.933,64.381 276.933,218.034 353.151,265.223 363.898,247.866 297.349,206.66 	"/>
</g>
</svg>