
<svg fill="#ffffff" version="1.1" id="Capa_1" xmlns="http://www.w3.org/2000/svg" xmlns:xlink="http://www.w3.org/1999/xlink" 
	 width="800px" height="800px" viewBox="0 0 457.797 457.796"
	 xml:space="preserve">
<g>
	<g>
		<path d="M229.672,124.238c-6.343,0-13.045,1.313-19.389,3.797c-20.458,8.015-32.54,26.189-26.928,40.515
			c3.683,9.402,14.37,15.243,27.892,15.243c6.343,0,13.048-1.313,19.392-3.797c9.893-3.875,18.143-10.21,23.229-17.839
			c5.111-7.663,6.426-15.717,3.697-22.675C253.883,130.079,243.195,124.238,229.672,124.238z"/>
		<path d="M454.416,351.404l-98.934-98.934c-2.178-2.176-5.076-3.375-8.158-3.375c-3.084,0-5.98,1.199-8.16,3.376l-4.605,4.606
			c0,0-1.432,1.557-2.846,0.144c-4.43-4.429-16.01-16.011-16.01-16.011c-1.441-1.441-0.533-3.235,0.037-4.01
			c15.197-20.6,23.408-45.409,23.408-71.482c0-32.25-12.559-62.569-35.361-85.373c-22.805-22.804-53.123-35.363-85.373-35.363
			s-62.512,12.617-85.373,35.363c-3.378,3.361-5.104,3.614-6.482,2.486c-12.696-10.39-26.315-12.834-41.636-12.834
			c-23.816,0-45.681,9.794-61.566,27.579C8.294,114.44,0,136.625,0,160.043c0,32.873,11.763,79.524,31.464,124.792
			c8.771,20.156,18.122,37.596,27.045,50.436c11.186,16.096,20.631,23.592,29.723,23.592c3.428,0,11.872-1.306,16.243-13.39
			c3.605-9.974,6.818-21.317,10.225-33.347c5.567-19.647,11.641-42.741,20.46-56.721c0.818-1.49,1.329-1.009,1.557-0.799
			c12.072,11.115,24.656,19.021,39.761,24.395c1.584,0.414,1.666,1.369,1.813,1.808c3.332,9.994,6.316,20.922,9.249,31.664
			c3.258,11.933,6.335,23.204,9.813,32.961c4.287,12.031,12.66,13.333,16.067,13.333c9.058,0,18.496-7.607,29.704-23.943
			c8.896-12.965,18.265-30.574,27.095-50.923c1.629-3.755,3.082-7.864,5.762-10.903c1.436-1.629,2.74-2.539,4.621-3.737
			c0,0,2.477-1.65,3.979-0.147c3.693,3.694,13.533,13.534,17.305,17.305c1.416,1.414,0.139,3.201,0.139,3.201l-4.568,4.568
			c-2.178,2.178-3.377,5.075-3.377,8.16s1.199,5.982,3.375,8.158l98.936,98.935c2.176,2.176,5.074,3.375,8.158,3.375
			s5.98-1.199,8.158-3.375l41.715-41.716c2.178-2.177,3.377-5.075,3.377-8.16S456.592,353.58,454.416,351.404z M97.973,307.41
			l-0.034,0.123c-3.308,11.672-5.587,22.092-8.963,31.424c-0.305,0.843-0.5,2.565-1.892,2.565c-1.297,0-5.243-3.129-14.305-16.169
			c-8.16-11.74-17.174-28.592-25.381-47.452c-18.518-42.55-30.021-87.71-30.021-117.858c0-35.72,25.265-72.667,67.545-72.667
			c9.552,0,19.193,2.443,31.008,9.051c2.045,1.154,1.792,2.613,1.394,3.22c-12.781,19.469-19.646,42.241-19.646,66.071
			c0,27.657,7.838,52.093,24.852,73.388c1.446,1.601,0.71,2.759,0.364,3.255c-2.445,3.518-4.776,7.586-7.002,12.227
			C108.678,269.626,103.239,288.826,97.973,307.41z M198.852,284.885c7.75,0.903,12.562,1.569,19.563,1.569
			c11.995,0,20.819-0.735,31.339-3.687c2.223-0.687,1.387,1.25,1.236,1.577c-7.506,16.561-14.934,30.059-22.199,40.646
			c-5.088,7.418-10.195,15.5-13.218,15.928c-1.097,0.162-1.977,0.014-2.347-1.025c-2.926-8.211-12.958-46.135-15.101-53.82
			C197.878,285.188,198.507,284.845,198.852,284.885z M290.732,238.039c-19.316,19.315-45,29.955-72.317,29.955
			c-27.318,0-53.002-10.639-72.318-29.955c-19.316-19.317-29.956-45-29.956-72.319c0-27.318,10.64-53.001,29.956-72.318
			c19.316-19.317,45-29.956,72.318-29.956c27.317,0,53.001,10.638,72.317,29.956c19.316,19.317,29.955,45,29.955,72.318
			C320.688,193.037,310.049,218.72,290.732,238.039z M434.994,362.34c-7,7-21.002,21-28.002,28.001
			c-1.922,1.924-3.668,1.232-5.83-0.932c-13.854-13.854-66.457-66.461-85.73-85.729c-1.482-1.482-0.076-2.594-0.076-2.594
			l4.842-4.844c4.498-4.498,4.498-11.818,0-16.316l-20.336-20.334c0,0-1.424-1.309-0.52-2.213c0.965-0.965,2.221-2.221,2.961-2.961
			c1.076-1.077,2.268,0.464,2.268,0.464l20.336,20.333c2.178,2.178,5.074,3.376,8.158,3.376s5.982-1.199,8.158-3.376l4.525-4.525
			c0,0,1.623-1.529,3.518,0.365c19.555,19.555,73.676,73.675,85.99,85.99C436.875,358.666,436.762,360.572,434.994,362.34z"/>
	</g>
</g>
</svg>