<svg width="64" height="65" viewBox="0 0 64 65" fill="none" xmlns="http://www.w3.org/2000/svg">
<path d="M57.9734 23.3423C58.0203 23.0394 58.0051 22.7305 57.9289 22.4333C57.8526 22.136 57.7167 21.8563 57.5289 21.61C57.3411 21.3637 57.1051 21.1557 56.8344 20.9978C56.5637 20.8399 56.2635 20.7352 55.9511 20.6898C55.6387 20.6444 55.3201 20.659 55.0135 20.733C54.7069 20.8069 54.4183 20.9387 54.1643 21.1207C53.9102 21.3028 53.6956 21.5315 53.5328 21.794C53.3699 22.0564 53.262 22.3474 53.2151 22.6503C52.7854 25.4407 51.7735 28.1169 50.2412 30.5155C49.2554 30.5121 48.2837 30.7417 47.41 31.1844C47.1287 31.3565 46.8029 31.4479 46.4702 31.4479C46.1376 31.4479 45.8118 31.3565 45.5305 31.1844C43.2737 29.5594 40.598 28.5697 37.7983 28.3243C34.7479 28.0553 31.687 28.7165 29.043 30.2156C28.6593 30.3975 28.2182 30.4295 27.8108 30.3051C27.4034 30.1806 27.061 29.9091 26.8542 29.5468C25.8556 28.1101 24.4744 26.9624 22.8572 26.2254C21.1432 25.4757 19.2414 25.2249 17.383 25.5033C15.5246 25.7817 13.7897 26.5775 12.389 27.7938C11.3661 25.4288 10.7861 22.9061 10.676 20.3438C10.5308 18.4574 10.8928 16.5668 11.7269 14.8567C12.5609 13.1466 13.8383 11.6755 15.4343 10.5873C16.6196 9.79963 17.9985 9.32935 19.4314 9.22405C20.8643 9.11875 22.3005 9.38215 23.5948 9.98763L24.4751 10.4259C25.3009 10.8493 26.0958 11.3271 26.8542 11.8559C28.373 12.944 30.2117 13.5313 32.1002 13.5313C33.9887 13.5313 35.8275 12.944 37.3462 11.8559C38.1046 11.3271 38.8995 10.8493 39.7254 10.4259L40.6056 9.98763C41.6972 9.48021 42.8924 9.21679 44.103 9.21679C45.3136 9.21679 46.5087 9.48021 47.6003 9.98763C48.9793 10.6446 50.1914 11.5891 51.1498 12.7534C52.1082 13.9178 52.7891 15.2732 53.1437 16.7226C53.2006 17.0361 53.3238 17.3348 53.5056 17.5998C53.6874 17.8649 53.9238 18.0906 54.1999 18.2628C54.476 18.4349 54.7859 18.5498 55.1101 18.6003C55.4343 18.6507 55.7657 18.6355 56.0835 18.5556C56.4013 18.4758 56.6987 18.3331 56.9568 18.1364C57.215 17.9398 57.4284 17.6934 57.5835 17.4129C57.7387 17.1324 57.8323 16.8238 57.8584 16.5066C57.8846 16.1893 57.8427 15.8702 57.7355 15.5694C57.2228 13.4401 56.2233 11.4497 54.8109 9.74504C53.3984 8.0404 51.6091 6.66507 49.575 5.7206C47.853 4.91719 45.9665 4.5 44.0554 4.5C42.1443 4.5 40.2578 4.91719 38.5358 5.7206L37.4652 6.2511C36.4568 6.7693 35.4869 7.35504 34.5626 8.00404C33.853 8.52235 32.9887 8.80268 32.1002 8.80268C31.2117 8.80268 30.3474 8.52235 29.6378 8.00404C28.7135 7.35504 27.7436 6.7693 26.7352 6.2511L25.6646 5.7206C23.64 4.79252 21.4002 4.39366 19.1675 4.56359C16.9348 4.73352 14.7867 5.46632 12.9362 6.68933C10.6459 8.21692 8.80534 10.2963 7.59558 12.7228C6.38582 15.1493 5.84858 17.8394 6.03671 20.5283V20.7821C6.18385 23.8145 6.88466 26.7977 8.10657 29.5929C8.6727 30.9212 9.36567 32.1953 10.1764 33.3986C9.94217 34.5116 9.76746 35.6356 9.65301 36.7661C9.65301 37.5273 9.65301 38.3576 9.65301 39.2571C9.65301 39.8689 9.90367 40.4555 10.3498 40.8881C10.796 41.3206 11.4012 41.5636 12.0322 41.5636C12.3446 41.5636 12.654 41.504 12.9426 41.3881C13.2313 41.2721 13.4935 41.1022 13.7145 40.8881C13.9354 40.6739 14.1106 40.4196 14.2302 40.1398C14.3498 39.8599 14.4113 39.56 14.4113 39.2571C14.4113 38.496 14.4113 37.781 14.4113 37.1351C14.5287 35.891 14.7434 34.6573 15.0537 33.4447C15.1541 32.9802 15.1042 32.4969 14.9109 32.0608C15.3583 31.4091 15.9649 30.8745 16.6767 30.5048C17.3885 30.1351 18.1836 29.9417 18.9911 29.9417C19.7987 29.9417 20.5937 30.1351 21.3056 30.5048C22.0174 30.8745 22.624 31.4091 23.0714 32.0608C23.9493 33.3824 25.3102 34.3332 26.8811 34.7225C28.4521 35.1118 30.1167 34.9108 31.5411 34.1598C33.2902 33.1708 35.3031 32.7085 37.324 32.8317C39.3448 32.9549 41.2822 33.6581 42.8896 34.8517C43.9391 35.5941 45.2068 35.9903 46.5059 35.9819C47.6262 35.9763 48.7284 35.7072 49.7178 35.1977C50.3238 38.5923 50.1941 42.0721 49.3371 45.4155C48.3805 49.1205 46.5017 52.5417 43.8651 55.3796C43.7153 55.5427 43.5278 55.6692 43.3179 55.7486C43.1469 55.8057 42.9639 55.8209 42.7854 55.7927C42.6069 55.7646 42.4383 55.6939 42.2948 55.5872C42.0642 55.4144 41.8808 55.1896 41.7605 54.9322C41.6402 54.6749 41.5868 54.393 41.6049 54.111C42.0934 49.8491 40.8281 45.5724 38.0838 42.2094C37.3483 41.3471 36.4397 40.6387 35.4131 40.1272C34.3866 39.6158 33.2635 39.3119 32.1121 39.2341C30.9382 39.3054 29.7926 39.6129 28.748 40.1371C27.7035 40.6613 26.7831 41.3906 26.0453 42.2786C23.3134 45.6145 22.0253 49.8488 22.4528 54.0879C22.4709 54.3699 22.4174 54.6519 22.2972 54.9092C22.1769 55.1665 21.9934 55.3914 21.7628 55.5641C21.6226 55.6769 21.4538 55.7513 21.274 55.7797C21.0941 55.8081 20.9097 55.7894 20.7398 55.7255C20.5238 55.6459 20.3345 55.5103 20.1926 55.3334C17.6533 52.5105 15.8429 49.1427 14.9109 45.5077C14.7402 44.9349 14.3473 44.4485 13.8146 44.1504C13.2819 43.8523 12.6509 43.7658 12.0539 43.909C11.4568 44.0522 10.9402 44.414 10.6123 44.9185C10.2845 45.423 10.1709 46.0309 10.2954 46.6149C11.405 50.9767 13.5749 55.0179 16.6239 58.4011C17.2616 59.1329 18.0801 59.6963 19.003 60.0387C19.9022 60.3683 20.8724 60.4734 21.8244 60.3445C22.7765 60.2155 23.6798 59.8565 24.4513 59.3006C25.3329 58.7005 26.0468 57.8972 26.5286 56.9631C27.0103 56.029 27.2449 54.9934 27.2111 53.9495C26.9126 50.8906 27.7568 47.8295 29.5902 45.3232C30.2127 44.5447 31.1116 44.0185 32.1121 43.8471C33.1827 43.8471 34.1582 44.8619 34.6816 45.4155C36.4731 47.9371 37.2748 50.997 36.9418 54.0418C36.8973 55.0775 37.1172 56.1077 37.5821 57.0412C38.0469 57.9747 38.7423 58.7825 39.6064 59.3929C40.5948 60.1115 41.7969 60.5 43.0324 60.5C43.7339 60.4589 44.4206 60.2866 45.0546 59.9926C45.9776 59.6502 46.7961 59.0868 47.4338 58.355C50.5104 54.9944 52.713 50.969 53.8575 46.6149C54.966 42.2678 55.0473 37.7342 54.0954 33.3525C56.1169 30.3256 57.4397 26.9109 57.9734 23.3423Z" fill="white"/>
<path d="M17.6943 33.4677C17.5392 33.4676 17.3857 33.4976 17.2427 33.5558C17.0996 33.6141 16.9701 33.6994 16.8615 33.8068C16.7529 33.9142 16.6675 34.0415 16.6104 34.1813C16.5532 34.3211 16.5254 34.4706 16.5286 34.6209C16.5286 34.849 16.5983 35.072 16.729 35.2616C16.8598 35.4513 17.0455 35.5991 17.2629 35.6864C17.4803 35.7736 17.7195 35.7965 17.9502 35.752C18.181 35.7075 18.3929 35.5977 18.5593 35.4364C18.7257 35.2751 18.8389 35.0696 18.8848 34.8459C18.9307 34.6222 18.9072 34.3903 18.8172 34.1796C18.7271 33.9688 18.5746 33.7887 18.379 33.662C18.1834 33.5353 17.9534 33.4677 17.7181 33.4677H17.6943Z" fill="white"/>
<path d="M46.2441 40.3872C46.5596 40.3872 46.8622 40.2657 47.0853 40.0494C47.3084 39.8331 47.4337 39.5398 47.4337 39.2339C47.4337 38.9281 47.3084 38.6347 47.0853 38.4185C46.8622 38.2022 46.5596 38.0807 46.2441 38.0807C46.089 38.0807 45.9355 38.1106 45.7925 38.1689C45.6494 38.2271 45.5199 38.3124 45.4113 38.4198C45.3027 38.5272 45.2174 38.6546 45.1602 38.7943C45.103 38.9341 45.0752 39.0836 45.0784 39.2339C45.0783 39.5358 45.2004 39.8257 45.4183 40.0414C45.6363 40.257 45.9328 40.3811 46.2441 40.3872Z" fill="white"/>
<path d="M17.6943 47.3066C18.0098 47.3066 18.3124 47.1851 18.5355 46.9688C18.7586 46.7526 18.8839 46.4592 18.8839 46.1534C18.8839 45.8475 18.7586 45.5542 18.5355 45.3379C18.3124 45.1216 18.0098 45.0001 17.6943 45.0001C17.5392 45.0001 17.3857 45.0301 17.2427 45.0883C17.0996 45.1465 16.9701 45.2319 16.8615 45.3393C16.7529 45.4467 16.6675 45.574 16.6104 45.7138C16.5532 45.8536 16.5254 46.003 16.5286 46.1534C16.5285 46.4553 16.6506 46.7452 16.8685 46.9608C17.0865 47.1764 17.383 47.3006 17.6943 47.3066Z" fill="white"/>
<path d="M37.965 36.9274C37.965 36.6216 37.8396 36.3282 37.6166 36.1119C37.3935 35.8957 37.0909 35.7742 36.7754 35.7742C36.6203 35.7741 36.4667 35.8041 36.3237 35.8624C36.1807 35.9206 36.0511 36.0059 35.9425 36.1133C35.834 36.2207 35.7486 36.348 35.6914 36.4878C35.6343 36.6276 35.6065 36.7771 35.6096 36.9274C35.6096 37.2333 35.7349 37.5266 35.958 37.7429C36.1811 37.9592 36.4837 38.0807 36.7992 38.0807C37.1147 38.0807 37.4173 37.9592 37.6403 37.7429C37.8634 37.5266 37.9888 37.2333 37.9888 36.9274H37.965Z" fill="white"/>
<path d="M46.2441 47.3066C46.5596 47.3066 46.8622 47.1851 47.0853 46.9688C47.3084 46.7526 47.4337 46.4592 47.4337 46.1534C47.4337 45.8475 47.3084 45.5542 47.0853 45.3379C46.8622 45.1216 46.5596 45.0001 46.2441 45.0001C46.089 45.0001 45.9355 45.0301 45.7925 45.0883C45.6494 45.1465 45.5199 45.2319 45.4113 45.3393C45.3027 45.4467 45.2174 45.574 45.1602 45.7138C45.103 45.8536 45.0752 46.003 45.0784 46.1534C45.0783 46.4553 45.2004 46.7452 45.4183 46.9608C45.6363 47.1764 45.9328 47.3006 46.2441 47.3066Z" fill="white"/>
<path d="M20.0742 40.3871C19.9191 40.3871 19.7655 40.4171 19.6225 40.4753C19.4795 40.5336 19.3499 40.6189 19.2414 40.7263C19.1328 40.8337 19.0474 40.961 18.9903 41.1008C18.9331 41.2406 18.9053 41.39 18.9084 41.5404C18.9084 41.7685 18.9782 41.9915 19.1089 42.1811C19.2396 42.3708 19.4254 42.5186 19.6428 42.6059C19.8602 42.6931 20.0993 42.716 20.3301 42.6715C20.5608 42.627 20.7728 42.5172 20.9392 42.3559C21.1055 42.1946 21.2188 41.9891 21.2647 41.7654C21.3106 41.5417 21.2871 41.3098 21.197 41.0991C21.107 40.8883 20.9545 40.7082 20.7589 40.5815C20.5633 40.4548 20.3333 40.3871 20.098 40.3871H20.0742Z" fill="white"/>
<path d="M20.0742 49.6132C19.9191 49.6131 19.7655 49.6431 19.6225 49.7013C19.4795 49.7596 19.3499 49.8449 19.2414 49.9523C19.1328 50.0597 19.0474 50.187 18.9903 50.3268C18.9331 50.4666 18.9053 50.6161 18.9084 50.7664C18.9084 50.9945 18.9782 51.2175 19.1089 51.4071C19.2396 51.5968 19.4254 51.7446 19.6428 51.8319C19.8602 51.9192 20.0993 51.942 20.3301 51.8975C20.5608 51.853 20.7728 51.7432 20.9392 51.5819C21.1055 51.4206 21.2188 51.2151 21.2647 50.9914C21.3106 50.7677 21.2871 50.5358 21.197 50.3251C21.107 50.1144 20.9545 49.9342 20.7589 49.8075C20.5633 49.6808 20.3333 49.6132 20.098 49.6132H20.0742Z" fill="white"/>
<path d="M43.8652 49.6132C43.7101 49.6131 43.5566 49.6431 43.4136 49.7013C43.2705 49.7596 43.141 49.8449 43.0324 49.9523C42.9238 50.0597 42.8384 50.187 42.7813 50.3268C42.7241 50.4666 42.6963 50.6161 42.6995 50.7664C42.6995 50.9945 42.7692 51.2175 42.8999 51.4071C43.0307 51.5968 43.2164 51.7446 43.4338 51.8319C43.6512 51.9192 43.8904 51.942 44.1211 51.8975C44.3519 51.853 44.5638 51.7432 44.7302 51.5819C44.8966 51.4206 45.0098 51.2151 45.0557 50.9914C45.1016 50.7677 45.0781 50.5358 44.9881 50.3251C44.898 50.1144 44.7455 49.9342 44.5499 49.8075C44.3543 49.6808 44.1243 49.6132 43.889 49.6132H43.8652Z" fill="white"/>
<path d="M26.0685 36.9274C26.0685 36.6216 25.9432 36.3282 25.7201 36.1119C25.497 35.8957 25.1944 35.7742 24.8789 35.7742C24.7238 35.7741 24.5702 35.8041 24.4272 35.8624C24.2842 35.9206 24.1546 36.0059 24.0461 36.1133C23.9375 36.2207 23.8521 36.348 23.795 36.4878C23.7378 36.6276 23.71 36.7771 23.7131 36.9274C23.7131 37.2333 23.8385 37.5266 24.0616 37.7429C24.2846 37.9592 24.5872 38.0807 24.9027 38.0807C25.2182 38.0807 25.5208 37.9592 25.7439 37.7429C25.9669 37.5266 26.0923 37.2333 26.0923 36.9274H26.0685Z" fill="white"/>
<path d="M41.4854 40.3871C41.3302 40.3871 41.1767 40.4171 41.0337 40.4753C40.8907 40.5336 40.7611 40.6189 40.6525 40.7263C40.5439 40.8337 40.4586 40.961 40.4014 41.1008C40.3442 41.2406 40.3164 41.39 40.3196 41.5404C40.3196 41.7685 40.3893 41.9915 40.5201 42.1811C40.6508 42.3708 40.8366 42.5186 41.0539 42.6059C41.2713 42.6931 41.5105 42.716 41.7412 42.6715C41.972 42.627 42.1839 42.5172 42.3503 42.3559C42.5167 42.1946 42.63 41.9891 42.6759 41.7654C42.7218 41.5417 42.6982 41.3098 42.6082 41.0991C42.5181 40.8883 42.3657 40.7082 42.17 40.5815C41.9744 40.4548 41.7444 40.3871 41.5092 40.3871H41.4854Z" fill="white"/>
</svg>
