<svg width="64" height="64" viewBox="0 0 64 64" fill="none" xmlns="http://www.w3.org/2000/svg">
<path d="M55.54 7.19997C44.5532 4.16199 33.0823 3.27909 21.76 4.59997C21.2296 4.66362 20.7461 4.93538 20.4161 5.35546C20.086 5.77554 19.9363 6.30954 20 6.83997C20.0637 7.3704 20.3354 7.85382 20.7555 8.18389C21.1756 8.51395 21.7096 8.66362 22.24 8.59997C33.0439 7.34656 43.9878 8.17483 54.48 11.04C54.9151 11.165 55.2981 11.4272 55.572 11.7876C55.8459 12.148 55.996 12.5873 56 13.04V16.36C55.3587 16.1271 54.6823 16.0054 54 16C52.5199 16.0088 51.0953 16.5644 50 17.56C49.0194 16.6757 47.7746 16.1397 46.4584 16.0348C45.1422 15.9299 43.8282 16.2622 42.72 16.98C42.1327 16.1358 41.3657 15.4323 40.474 14.92C39.5824 14.4077 38.5883 14.0993 37.5632 14.0171C36.5381 13.9348 35.5076 14.0808 34.5457 14.4444C33.5837 14.808 32.7143 15.3802 32 16.12C31.2857 15.3802 30.4163 14.808 29.4543 14.4444C28.4924 14.0808 27.4619 13.9348 26.4368 14.0171C25.4117 14.0993 24.4176 14.4077 23.526 14.92C22.6343 15.4323 21.8673 16.1358 21.28 16.98C20.1718 16.2622 18.8578 15.9299 17.5416 16.0348C16.2254 16.1397 14.9806 16.6757 14 17.56C12.9047 16.5644 11.4801 16.0088 10 16C9.31771 16.0054 8.64135 16.1271 8 16.36V13.08C8.01848 12.6195 8.18372 12.1771 8.47159 11.8172C8.75945 11.4574 9.15485 11.1991 9.6 11.08C11.18 10.64 12.8 10.26 14.42 9.89997C14.6922 9.86176 14.9536 9.76785 15.1879 9.6241C15.4222 9.48034 15.6244 9.28984 15.7818 9.06447C15.9391 8.8391 16.0484 8.5837 16.1026 8.31423C16.1569 8.04476 16.155 7.76699 16.0972 7.49827C16.0393 7.22955 15.9266 6.97565 15.7662 6.75241C15.6059 6.52917 15.4012 6.34139 15.165 6.2008C14.9288 6.0602 14.6661 5.9698 14.3934 5.93525C14.1207 5.90069 13.8438 5.92273 13.58 5.99997C11.88 6.35997 10.18 6.77997 8.54 7.21997C7.25137 7.57447 6.11238 8.33717 5.29384 9.3937C4.47531 10.4502 4.02133 11.7436 4 13.08V25.88C4 26.9727 4.43407 28.0206 5.20672 28.7933C5.97937 29.5659 7.02731 30 8.12 30H11.88C12.1062 30.0207 12.3338 30.0207 12.56 30C12.9284 30.614 13.4505 31.1213 14.0748 31.472C14.6991 31.8227 15.404 32.0047 16.12 32H19.88C20.1062 32.0207 20.3338 32.0207 20.56 32C20.9284 32.614 21.4505 33.1213 22.0748 33.472C22.6991 33.8227 23.404 34.0047 24.12 34H29.88C30.6289 34.0024 31.3634 33.7945 32 33.4C32.6366 33.7945 33.3711 34.0024 34.12 34H39.88C40.596 34.0047 41.3009 33.8227 41.9252 33.472C42.5495 33.1213 43.0716 32.614 43.44 32C43.6662 32.0207 43.8938 32.0207 44.12 32H47.88C48.596 32.0047 49.3009 31.8227 49.9252 31.472C50.5495 31.1213 51.0716 30.614 51.44 30C51.6662 30.0207 51.8938 30.0207 52.12 30H55.88C56.9727 30 58.0206 29.5659 58.7933 28.7933C59.5659 28.0206 60 26.9727 60 25.88V13.08C60.001 11.7472 59.5655 10.4508 58.7601 9.38898C57.9547 8.32714 56.8237 7.55828 55.54 7.19997ZM8 25.88V22C8 21.4695 8.21071 20.9608 8.58579 20.5858C8.96086 20.2107 9.46957 20 10 20C10.5304 20 11.0391 20.2107 11.4142 20.5858C11.7893 20.9608 12 21.4695 12 22V25.88C12 25.9118 11.9874 25.9423 11.9649 25.9648C11.9423 25.9873 11.9118 26 11.88 26L8 25.88ZM16 27.88V22C16 21.4695 16.2107 20.9608 16.5858 20.5858C16.9609 20.2107 17.4696 20 18 20C18.5304 20 19.0391 20.2107 19.4142 20.5858C19.7893 20.9608 20 21.4695 20 22V27.88C20 27.8957 19.9969 27.9113 19.9909 27.9259C19.9848 27.9405 19.976 27.9537 19.9649 27.9648C19.9537 27.976 19.9405 27.9848 19.9259 27.9908C19.9114 27.9969 19.8958 28 19.88 28L16 27.88ZM29.88 30L24 29.88V21C24 20.2043 24.3161 19.4413 24.8787 18.8787C25.4413 18.316 26.2044 18 27 18C27.7956 18 28.5587 18.316 29.1213 18.8787C29.6839 19.4413 30 20.2043 30 21V29.88C30 29.9118 29.9874 29.9423 29.9649 29.9648C29.9423 29.9873 29.9118 30 29.88 30ZM40 29.88C40 29.9118 39.9874 29.9423 39.9649 29.9648C39.9423 29.9873 39.9118 30 39.88 30L34 29.88V21C34 20.2043 34.3161 19.4413 34.8787 18.8787C35.4413 18.316 36.2043 18 37 18C37.7957 18 38.5587 18.316 39.1213 18.8787C39.6839 19.4413 40 20.2043 40 21V29.88ZM48 27.88C48 27.9118 47.9874 27.9423 47.9649 27.9648C47.9423 27.9873 47.9118 28 47.88 28L44 27.88V22C44 21.4695 44.2107 20.9608 44.5858 20.5858C44.9609 20.2107 45.4696 20 46 20C46.5304 20 47.0391 20.2107 47.4142 20.5858C47.7893 20.9608 48 21.4695 48 22V27.88ZM56 25.88C56 25.9118 55.9874 25.9423 55.9649 25.9648C55.9423 25.9873 55.9118 26 55.88 26L52 25.88V22C52 21.4695 52.2107 20.9608 52.5858 20.5858C52.9609 20.2107 53.4696 20 54 20C54.5304 20 55.0391 20.2107 55.4142 20.5858C55.7893 20.9608 56 21.4695 56 22V25.88Z" fill="white"/>
<path d="M53.88 38H50.12C49.3711 37.9976 48.6366 38.2055 48 38.6C47.3634 38.2055 46.6289 37.9976 45.88 38H42.12C41.8938 37.9792 41.6662 37.9792 41.44 38C41.0716 37.386 40.5495 36.8786 39.9252 36.5279C39.3009 36.1772 38.596 35.9952 37.88 36H34.12C33.3711 35.9976 32.6366 36.2055 32 36.6C31.3634 36.2055 30.6289 35.9976 29.88 36H26.12C25.404 35.9952 24.6991 36.1772 24.0748 36.5279C23.4505 36.8786 22.9284 37.386 22.56 38C22.3338 37.9792 22.1062 37.9792 21.88 38H18.12C17.3711 37.9976 16.6366 38.2055 16 38.6C15.3634 38.2055 14.6289 37.9976 13.88 38H10.12C9.02731 38 7.97937 38.434 7.20672 39.2067C6.43407 39.9793 6 41.0273 6 42.12V51C6.00199 52.3071 6.42246 53.5793 7.19984 54.6302C7.97721 55.6811 9.07065 56.4555 10.32 56.84C17.3556 58.9374 24.6585 60.0018 32 60C36.1268 59.9974 40.2468 59.663 44.32 59C44.8504 58.9151 45.3254 58.623 45.6405 58.1879C45.9555 57.7528 46.0849 57.2104 46 56.68C45.9151 56.1495 45.623 55.6745 45.1879 55.3595C44.7529 55.0444 44.2104 54.9151 43.68 55C32.9261 56.7619 21.9134 56.0783 11.46 53C11.0378 52.8617 10.6696 52.5942 10.4077 52.2353C10.1457 51.8764 10.0031 51.4443 10 51V49.64C10.6413 49.8728 11.3177 49.9946 12 50C13.4801 49.9911 14.9047 49.4355 16 48.44C17.1 49.4239 18.5241 49.9678 20 49.9678C21.4759 49.9678 22.9 49.4239 24 48.44C25.1 49.4239 26.5241 49.9678 28 49.9678C29.4759 49.9678 30.9 49.4239 32 48.44C33.1 49.4239 34.5241 49.9678 36 49.9678C37.4759 49.9678 38.9 49.4239 40 48.44C41.1 49.4239 42.5241 49.9678 44 49.9678C45.4759 49.9678 46.9 49.4239 48 48.44C49.0953 49.4355 50.5199 49.9911 52 50C52.6823 49.9946 53.3587 49.8728 54 49.64V51C53.9825 51.4519 53.8248 51.8872 53.5489 52.2455C53.273 52.6039 52.8924 52.8675 52.46 53C51.46 53.3 50.46 53.56 49.52 53.8C48.9896 53.8636 48.5061 54.1354 48.1761 54.5555C47.846 54.9755 47.6963 55.5095 47.76 56.04C47.8237 56.5704 48.0954 57.0538 48.5155 57.3839C48.9356 57.714 49.4696 57.8636 50 57.8C50.1594 57.8192 50.3206 57.8192 50.48 57.8L53.58 56.96C54.861 56.5761 55.9834 55.7883 56.78 54.7142C57.5766 53.6401 58.0045 52.3372 58 51V42.12C58 41.0273 57.5659 39.9793 56.7933 39.2067C56.0206 38.434 54.9727 38 53.88 38ZM12 46C11.4696 46 10.9609 45.7893 10.5858 45.4142C10.2107 45.0391 10 44.5304 10 44L10.12 42L14 42.12V44C14 44.5304 13.7893 45.0391 13.4142 45.4142C13.0391 45.7893 12.5304 46 12 46ZM20 46C19.4696 46 18.9609 45.7893 18.5858 45.4142C18.2107 45.0391 18 44.5304 18 44L18.12 42L22 42.12V44C22 44.5304 21.7893 45.0391 21.4142 45.4142C21.0391 45.7893 20.5304 46 20 46ZM28 46C27.4696 46 26.9609 45.7893 26.5858 45.4142C26.2107 45.0391 26 44.5304 26 44L26.12 40L30 40.12V44C30 44.5304 29.7893 45.0391 29.4142 45.4142C29.0391 45.7893 28.5304 46 28 46ZM36 46C35.4696 46 34.9609 45.7893 34.5858 45.4142C34.2107 45.0391 34 44.5304 34 44L34.12 40L38 40.12V44C38 44.5304 37.7893 45.0391 37.4142 45.4142C37.0391 45.7893 36.5304 46 36 46ZM44 46C43.4696 46 42.9609 45.7893 42.5858 45.4142C42.2107 45.0391 42 44.5304 42 44L42.12 42L46 42.12V44C46 44.5304 45.7893 45.0391 45.4142 45.4142C45.0391 45.7893 44.5304 46 44 46ZM52 46C51.4696 46 50.9609 45.7893 50.5858 45.4142C50.2107 45.0391 50 44.5304 50 44L50.12 42L54 42.12V44C54 44.5304 53.7893 45.0391 53.4142 45.4142C53.0391 45.7893 52.5304 46 52 46Z" fill="white"/>
</svg>
