<!DOCTYPE svg PUBLIC "-//W3C//DTD SVG 1.1//EN" "http://www.w3.org/Graphics/SVG/1.1/DTD/svg11.dtd">
<!-- Uploaded to: SVG Repo, www.svgrepo.com, Transformed by: SVG Repo Mixer Tools -->
<svg fill="#ffffff" version="1.1" id="Capa_1" xmlns="http://www.w3.org/2000/svg" xmlns:xlink="http://www.w3.org/1999/xlink" width="800px" height="800px" viewBox="0 0 439.961 439.961" xml:space="preserve">
<g id="SVGRepo_bgCarrier" stroke-width="0"/>
<g id="SVGRepo_tracerCarrier" stroke-linecap="round" stroke-linejoin="round"/>
<g id="SVGRepo_iconCarrier"> <g> <path d="M351.109,129.353c0-11.304-9.195-20.5-20.5-20.5c-11.303,0-20.896,9.196-20.896,20.5l-0.002,99.352 c0,4.014-3.012,7.041-7.004,7.04c-3.986,0-6.994-3.017-6.994-7.015V46.379c0,0,0.48-21.581-20.5-21.581 c-20.982,0-20.501,21.6-20.501,21.6V215.68c0.022,0.693-0.045,3.013-1.793,4.871c-0.892,0.946-2.528,2.074-5.28,2.074 c-2.771,0-4.418-1.127-5.311-2.072c-1.729-1.832-1.805-4.103-1.784-4.774V20.5c0-11.304-9.194-20.5-20.5-20.5 c-11.303,0-20.5,9.196-20.5,20.5v195.643c0.039,0.763-0.002,3.094-1.725,4.976c-0.892,0.973-2.544,2.133-5.357,2.133 c-2.751,0-4.386-1.136-5.272-2.088c-1.749-1.879-1.807-4.229-1.777-4.956l-0.034-170.707c0-11.304-9.197-20.5-20.501-20.5 c-11.304,0-20.499,9.196-20.499,20.5v221.034c0.028,0.794-0.013,3.775-2.059,5.934c-0.868,0.916-2.429,2.01-4.931,2.01 c-2.515,0-4.067-1.104-4.928-2.029c-1.997-2.148-2.007-5.098-1.965-5.942V196.92c0-11.488-9.347-20.834-20.836-20.834 c-11.488,0-20.834,9.346-20.834,20.834v104.747c0,57.97,14.673,78.503,43.263,104.47c24.711,22.443,53.47,33.824,85.474,33.824 l0.615-0.002c51.468-0.232,91.388-22.725,118.652-66.85c9.471-15.324,14.281-33.573,14.305-54.239L351.109,129.353z M275.221,345.529c-0.998,0.816-1.787,1.463-2.164,1.797c-8.771,7.809-20.521,17.66-31.156,18.855 c-3.859,0.436-32.915,4.484-40.786-21.209c-0.684-2.232-1.197-4.447-1.76-6.574c-2.84-10.746-5.293-20.025-10.553-30.219 c-0.17-0.326-0.375-0.712-0.605-1.138c-2.273-4.233-6.51-12.11-2.646-16.144c1.021-1.063,2.264-1.627,3.596-1.627 c3.613,0,6.771,4.092,7.654,5.347c0.188,0.266,0.479,0.745,0.924,1.471c1.127,1.845,3.014,4.927,5.039,7.563 c3.189,4.158,4.557,4.369,4.797,4.369c0.26-0.002,0.66-0.656,0.926-1.908c1.414-6.641-0.338-13.975-2.033-21.069 c-0.795-3.323-1.617-6.765-2.074-10.021c-0.373-2.683,0.256-6.711,2.158-8.896c0.9-1.033,2.016-1.578,3.229-1.578 c1.393,0,2.826,0.719,4.264,2.141c2.977,2.945,4.908,10.498,5.795,14.736c0.129,0.621,1.424,5.578,3.186,10.721 c2.455,7.166,3.967,9.234,4.547,9.814c0.014-0.029,0.029-0.061,0.045-0.094c2.711-5.617,2.109-13.699,1.58-20.83 c-0.24-3.23-0.465-6.279-0.414-9.062c0.068-3.785,0.279-15.308,7.773-15.308c0.498,0,1.02,0.06,1.553,0.168 c5.031,1.041,5.109,10.229,4.73,20.371c-0.051,1.397-0.096,2.606-0.09,3.478c0.006,1.379-0.096,3.063-0.205,4.846 c-0.342,5.652-0.814,13.395,2.086,16.734c0.021,0.024,0.039,0.047,0.057,0.062c0.344-0.197,1.764-1.34,4.074-7.398 c1.443-3.777,2.479-7.508,2.488-7.543c0.063-0.232,1.588-5.691,3.93-11.252c3.393-8.049,6.662-11.963,9.998-11.963 c0.508,0,1.014,0.094,1.504,0.279c1.641,0.615,2.85,1.768,3.592,3.42c2.711,6.014-1.654,17.479-4,23.639 c-0.34,0.891-0.633,1.658-0.828,2.217c-0.312,0.896-0.717,1.969-1.188,3.209c-2.965,7.854-9.137,24.197-2.385,28.226 c1.43,0.854,2.879,1.269,4.424,1.269c3.969,0,8.109-2.814,12.115-5.533c4.16-2.828,8.459-5.748,12.895-5.748 c0.725,0,1.443,0.078,2.137,0.233c3.02,0.677,4.008,2.312,4.303,3.563C299.158,324.963,287.154,335.76,275.221,345.529z"/> </g> </g>
</svg>