<svg width="56" height="41" viewBox="0 0 56 41" fill="none" xmlns="http://www.w3.org/2000/svg">
<path d="M55.9858 14.1905V14.0203C55.9971 13.9387 55.9971 13.856 55.9858 13.7744C56.0047 13.6426 56.0047 13.509 55.9858 13.3772C55.9339 13.2601 55.8738 13.1463 55.8059 13.0368C55.8059 13.0368 55.8059 12.8854 55.6659 12.8098C47.348 3.35276 40.7697 -0.6381 35.551 0.85611C34.1703 1.31884 32.8948 2.0248 31.7919 2.93666C30.786 3.91032 29.4301 4.49089 27.9929 4.56326C26.605 4.4589 25.3045 3.88079 24.3338 2.93666C23.2376 1.99779 21.9617 1.2659 20.5748 0.780454C19.3128 0.48119 18.0008 0.420705 16.714 0.602472C15.4273 0.784239 14.1912 1.20468 13.0767 1.83964C12.843 1.9539 12.6354 2.11058 12.4657 2.30073C12.296 2.49089 12.1676 2.71079 12.0877 2.9479C12.0079 3.185 11.9782 3.43466 12.0004 3.68262C12.0225 3.93058 12.0961 4.17198 12.2169 4.39304C12.4608 4.83949 12.8823 5.17599 13.3885 5.32852C13.6391 5.40404 13.9031 5.43212 14.1652 5.41116C14.4273 5.39019 14.6825 5.3206 14.9162 5.20634C16.2684 4.44143 17.8844 4.21043 19.4151 4.56326C20.3204 4.89713 21.1538 5.38424 21.8745 6.00073C23.5509 7.45088 25.7222 8.28319 27.9929 8.34608C30.2741 8.26246 32.4467 7.40278 34.1114 5.92508C34.8383 5.33553 35.6714 4.87427 36.5707 4.56326C38.4702 3.99584 42.9891 4.56327 51.9468 14.7579C51.8043 20.4226 49.4047 25.8271 45.2285 29.8892L44.6087 30.4944C44.0088 31.024 43.389 31.5347 42.7492 32.0076C38.5334 35.108 33.3326 36.7679 27.9929 36.7172C21.7487 36.7197 15.7495 34.4195 11.2694 30.3051C6.78921 26.1908 4.18111 20.5864 3.99899 14.6823C5.67406 12.7656 7.47022 10.9465 9.37762 9.23504L10.1374 8.57304C10.333 8.40663 10.4921 8.20539 10.6055 7.98083C10.7189 7.75627 10.7844 7.51277 10.7984 7.26425C10.8123 7.01573 10.7743 6.76705 10.6867 6.53241C10.599 6.29776 10.4633 6.08175 10.2874 5.89671C10.1115 5.71166 9.89873 5.56121 9.66133 5.45393C9.42394 5.34666 9.16653 5.28466 8.90381 5.27149C8.64108 5.25832 8.37819 5.29422 8.13014 5.37716C7.88208 5.46009 7.65373 5.58843 7.45811 5.75485L6.61832 6.45467C4.43264 8.44764 2.37609 10.5636 0.459883 12.7909C0.459883 12.7909 0.459884 12.9422 0.319919 13.0178C0.251998 13.1274 0.191879 13.2412 0.139964 13.3583C0.121037 13.4901 0.121037 13.6237 0.139964 13.7555C0.078903 13.8363 0.0316697 13.9256 0 14.0203V14.1905C0.0475271 21.1838 3.01774 27.8754 8.26228 32.8045C13.5068 37.7337 20.5998 40.5001 27.9929 40.5C34.2516 40.5095 40.3284 38.509 45.2285 34.8257C45.9739 34.2754 46.688 33.6883 47.368 33.0667L48.1078 32.348C53.1067 27.4881 55.929 20.99 55.9858 14.2094V14.1905Z" fill="white"/>
<path d="M37.9904 25.7847C37.5768 26.1007 37.3128 26.5592 37.2566 27.0594C37.2003 27.5595 37.3564 28.0603 37.6905 28.4516C38.0246 28.8428 38.5093 29.0925 39.038 29.1457C39.5668 29.1989 40.0962 29.0513 40.5098 28.7353C42.839 26.9666 44.7198 24.7267 46.0138 22.1803C47.3079 19.6339 47.9825 16.8455 47.9879 14.0201C47.9879 13.5185 47.7772 13.0374 47.4023 12.6827C47.0273 12.328 46.5187 12.1287 45.9884 12.1287H9.99754C9.46724 12.1287 8.95866 12.328 8.58369 12.6827C8.20871 13.0374 7.99805 13.5185 7.99805 14.0201C7.99805 19.0364 10.1046 23.8473 13.8544 27.3944C17.6042 30.9415 22.69 32.9342 27.993 32.9342C30.2698 32.9406 32.5301 32.5693 34.6713 31.8372C35.1556 31.6567 35.5463 31.3046 35.7606 30.8559C35.9748 30.4072 35.9956 29.8971 35.8186 29.4341C35.6415 28.9711 35.2806 28.5916 34.8124 28.3764C34.3443 28.1611 33.8059 28.127 33.3116 28.2813C30.1848 29.3237 26.7929 29.4214 23.6049 28.5607C20.4169 27.7 17.5903 25.9236 15.5161 23.4772H40.4298C39.7092 24.3291 38.8911 25.103 37.9904 25.7847ZM35.9909 15.9115V19.6943H29.9925V15.9115H35.9909ZM13.1767 19.6943C12.6488 18.4831 12.2925 17.2111 12.117 15.9115H15.996V19.6943H13.1767ZM19.995 15.9115H25.9935V19.6943H19.995V15.9115ZM39.9899 19.6943V15.9115H43.869C43.6815 17.2109 43.3186 18.4823 42.7892 19.6943H39.9899Z" fill="white"/>
</svg>
