<?xml version="1.0" encoding="iso-8859-1"?>
<!-- Uploaded to: SVG Repo, www.svgrepo.com, Generator: SVG Repo Mixer Tools -->
<svg fill="#fff" height="800px" width="800px" version="1.1" id="Layer_1" xmlns="http://www.w3.org/2000/svg" xmlns:xlink="http://www.w3.org/1999/xlink" 
	 viewBox="0 0 512.003 512.003" xml:space="preserve">
<g>
	<g>
		<path d="M512.003,231.284c0-0.009-0.002-0.017-0.002-0.026v-0.868c0-2.369-0.985-4.631-2.719-6.246l-48.481-45.136V85.333
			c0-4.713-3.821-8.533-8.533-8.533H351.019l-73.32-68.267c-12.232-11.369-31.168-11.369-43.394-0.005l-73.318,68.272H59.735
			c-4.713,0-8.533,3.82-8.533,8.533v93.676L2.72,224.144c-1.734,1.614-2.719,3.877-2.719,6.246v0.868
			c0,0.009-0.002,0.017-0.002,0.026v271.078c0,0.011,0.002,0.022,0.002,0.034v1.07c0,4.713,3.82,8.533,8.533,8.533h494.933
			c4.713,0,8.533-3.82,8.533-8.533v-1.07c0-0.011,0.002-0.022,0.002-0.034V231.284z M245.93,21.023
			c5.671-5.271,14.468-5.271,20.145,0.005l59.898,55.77h-139.94L245.93,21.023z M187.735,319.46l-34.133-18.821V196.267h34.133
			V319.46z M273.068,347.69l-17.067,9.41l-17.067-9.409V136.53h34.133V347.69z M358.402,300.639l-34.133,18.821V170.664h34.133
			V300.639z M494.935,488.845l-221.257-122l6.358-3.506l39.796-21.941c0.008-0.004,0.016-0.007,0.024-0.011l13.119-7.235
			l123.413-68.044c0.034-0.019,0.064-0.044,0.098-0.063l38.448-21.2V488.845z M55.519,266.047c0.033,0.019,0.062,0.043,0.096,0.062
			l100.992,55.682l35.54,19.6c0.021,0.012,0.043,0.019,0.064,0.03l39.755,21.919l19.915,10.981c0.005,0.003,0.011,0.005,0.016,0.008
			L470.62,494.929H17.068V244.845L55.519,266.047z M489.034,228.611l-28.232,15.567v-41.851L489.034,228.611z M68.268,93.866
			h375.467v88.857v70.865l-68.267,37.641V162.13c0-4.713-3.82-8.533-8.533-8.533h-51.2c-4.713,0-8.533,3.82-8.533,8.533V328.87
			l-17.067,9.41V127.997c0-4.713-3.82-8.533-8.533-8.533h-51.2c-4.713,0-8.533,3.82-8.533,8.533v210.284l-17.067-9.41V187.734
			c0-4.713-3.82-8.533-8.533-8.533h-51.2c-4.713,0-8.533,3.82-8.533,8.533v103.495l-68.267-37.642v-70.864V93.866z M51.202,244.177
			L22.97,228.61l28.232-26.284V244.177z"/>
	</g>
</g>
</svg>