<svg width="46" height="57" viewBox="0 0 46 57" fill="none" xmlns="http://www.w3.org/2000/svg">
<path d="M45.7585 16.9203C45.8444 16.371 45.7066 15.8104 45.3754 15.3618C45.0441 14.9133 44.5466 14.6134 43.9922 14.5283C43.4378 14.4431 42.872 14.5797 42.4193 14.9079C41.9665 15.2361 41.6639 15.729 41.5779 16.2783C41.1558 18.9412 40.1186 21.4715 38.547 23.6718C33.7594 26.1755 28.4298 27.4903 23.0162 27.5032C22.0756 27.5032 21.1767 27.5032 20.2988 27.3996C19.7444 27.3529 19.1941 27.5263 18.7687 27.8817C18.3434 28.2371 18.078 28.7453 18.0309 29.2946C17.9837 29.8439 18.1588 30.3892 18.5175 30.8106C18.8761 31.232 19.3891 31.495 19.9435 31.5416C20.9329 31.6107 21.9571 31.6452 23.0162 31.6452C25.5152 31.6354 28.0073 31.3857 30.4576 30.8996L29.7051 34.6275L16.5363 36.6985L14.885 28.4144C14.8528 28.3006 14.8108 28.1898 14.7596 28.083C14.782 27.6288 14.6529 27.1799 14.3923 26.8057C14.1316 26.4314 13.7538 26.1525 13.3173 26.012C11.2903 25.4157 9.32936 24.6178 7.46447 23.6304C6.7673 22.6831 6.17841 21.662 5.70863 20.586C4.82253 18.589 4.31247 16.4482 4.20362 14.2694C4.08882 12.6643 4.39634 11.0572 5.09614 9.60521C5.79594 8.15318 6.86406 6.90591 8.19607 5.98534C9.26146 5.24735 10.5038 4.79961 11.7988 4.68693C13.0938 4.57426 14.3959 4.80061 15.5748 5.34333L16.3691 5.73682C17.0957 6.09957 17.7944 6.51489 18.4594 6.97943C19.8012 7.90968 21.3994 8.40863 23.0371 8.40863C24.6748 8.40863 26.273 7.90968 27.6148 6.97943C28.2798 6.51489 28.9785 6.09957 29.7051 5.73682L30.4785 5.34333C31.4627 4.8979 32.532 4.66737 33.6139 4.66737C34.6959 4.66737 35.7652 4.8979 36.7494 5.34333C37.9079 5.90225 38.929 6.70529 39.7414 7.69622C40.5538 8.68716 41.1378 9.84204 41.4525 11.08C41.5251 11.3426 41.6492 11.5884 41.8177 11.8034C41.9862 12.0184 42.1959 12.1984 42.4347 12.333C42.6735 12.4676 42.9367 12.5543 43.2094 12.5881C43.482 12.6218 43.7587 12.602 44.0236 12.5297C44.5541 12.3843 45.0053 12.0374 45.2793 11.5644C45.5532 11.0913 45.6278 10.5303 45.4868 10.0031C45.0116 8.18521 44.1429 6.49152 42.9409 5.03956C41.739 3.58761 40.2325 2.41216 38.5261 1.59479C36.9871 0.8739 35.3059 0.5 33.6035 0.5C31.9011 0.5 30.2199 0.8739 28.6809 1.59479L27.7402 2.05042C26.8554 2.49433 26.0032 2.99953 25.1901 3.56226C24.5505 4.0174 23.7828 4.26222 22.9953 4.26222C22.2078 4.26222 21.4401 4.0174 20.8005 3.56226C19.9874 2.99953 19.1352 2.49433 18.2503 2.05042L17.3097 1.59479C15.4706 0.776904 13.4492 0.444336 11.442 0.629415C9.43485 0.814493 7.51013 1.51092 5.85495 2.65101C3.93998 3.95044 2.39665 5.71836 1.3748 7.78313C0.352945 9.84791 -0.112707 12.1394 0.0230485 14.4351V14.6629C0.16262 17.3064 0.785896 19.9029 1.8625 22.3256C2.4878 23.7911 3.2803 25.1808 4.22452 26.4677C4.3541 26.596 4.4939 26.7137 4.64258 26.8197C4.64258 26.8197 4.64258 26.8197 4.768 26.8197C4.84169 26.8698 4.91155 26.9252 4.97703 26.9854C5.07207 27.0793 5.17722 27.1627 5.29057 27.2339C7.08206 28.1663 8.94888 28.9491 10.8716 29.5742L12.4184 37.4647L10.0564 37.8582C9.50204 37.9132 8.99239 38.184 8.63959 38.6113C8.28679 39.0385 8.11973 39.5871 8.17516 40.1363C8.2306 40.6856 8.504 41.1906 8.9352 41.5401C9.36641 41.8897 9.9201 42.0552 10.4745 42.0003H10.8089L13.2755 41.5861L14.0907 45.7281L11.436 46.1423C10.8816 46.1917 10.3698 46.4573 10.0131 46.8807C9.65633 47.304 9.48396 47.8504 9.53385 48.3997C9.58375 48.949 9.85182 49.4561 10.2791 49.8095C10.7064 50.163 11.2579 50.3337 11.8123 50.2843H12.1885L14.8223 49.808L14.9477 50.4293C15.3611 52.1899 16.3751 53.7551 17.8184 54.8607C19.2618 55.9663 21.0461 56.5444 22.8699 56.4973C24.6994 56.5423 26.4882 55.9583 27.9324 54.8446C29.3766 53.7309 30.387 52.1561 30.7921 50.3879L31.5446 46.7015L34.8263 46.1423C35.3807 46.0434 35.8727 45.7304 36.1942 45.2721C36.5156 44.8138 36.6401 44.2478 36.5403 43.6985C36.4406 43.1492 36.1246 42.6617 35.6621 42.3432C35.1995 42.0248 34.6282 41.9014 34.0738 42.0003L32.4225 42.2902L33.2377 38.1482L35.6833 37.8582C35.9578 37.8134 36.2207 37.7154 36.457 37.5698C36.6933 37.4243 36.8983 37.2341 37.0604 37.01C37.2224 36.786 37.3384 36.5325 37.4016 36.2641C37.4648 35.9956 37.474 35.7175 37.4287 35.4455C37.3834 35.1735 37.2845 34.9131 37.1376 34.679C36.9907 34.4449 36.7987 34.2417 36.5726 34.0812C36.3465 33.9206 36.0906 33.8057 35.8197 33.7431C35.5488 33.6805 35.268 33.6713 34.9935 33.7162L34.1156 33.8612L34.889 29.947C34.8995 29.8644 34.8995 29.781 34.889 29.6984C36.9021 29.0477 38.8535 28.223 40.7209 27.2339C40.8319 27.168 40.9308 27.084 41.0136 26.9854H41.139L41.3689 26.799C41.5224 26.6993 41.6629 26.581 41.787 26.4469C43.8695 23.6367 45.2324 20.3675 45.7585 16.9203ZM26.6951 49.5802C26.4791 50.4093 25.9801 51.1387 25.2827 51.6446C24.5854 52.1505 23.7329 52.4016 22.8699 52.3553C22.0069 52.4016 21.1543 52.1505 20.457 51.6446C19.7597 51.1387 19.2607 50.4093 19.0447 49.5802V49.021L27.1968 47.5299L26.6951 49.5802ZM27.9911 43.1393L18.1249 44.9411L17.3306 40.7991L28.8272 38.8937L27.9911 43.1393Z" fill="white"/>
<path d="M28.0335 9.27846C26.5862 10.3539 24.8259 10.9353 23.0168 10.9353C21.2077 10.9353 19.4474 10.3539 18.0002 9.27846C17.7806 9.11528 17.5307 8.99655 17.2648 8.92905C16.9988 8.86155 16.7221 8.84661 16.4504 8.88507C16.1786 8.92353 15.9172 9.01465 15.681 9.15322C15.4448 9.29178 15.2385 9.47509 15.0738 9.69266C14.9091 9.91024 14.7892 10.1578 14.7211 10.4213C14.653 10.6847 14.6379 10.9589 14.6767 11.2282C14.7551 11.7719 15.0483 12.2625 15.4918 12.5921C17.6627 14.2053 20.3032 15.0773 23.0168 15.0773C25.7305 15.0773 28.371 14.2053 30.5419 12.5921C30.7615 12.4289 30.9465 12.2245 31.0863 11.9904C31.2262 11.7564 31.3182 11.4974 31.357 11.2282C31.3958 10.9589 31.3807 10.6847 31.3126 10.4213C31.2445 10.1578 31.1246 9.91024 30.9599 9.69266C30.7952 9.47509 30.5889 9.29178 30.3527 9.15322C30.1165 9.01465 29.8551 8.92353 29.5833 8.88507C29.3116 8.84661 29.0348 8.86155 28.7689 8.92905C28.503 8.99655 28.2531 9.11528 28.0335 9.27846Z" fill="white"/>
</svg>
