<svg width="57" height="53" viewBox="0 0 57 53" fill="none" xmlns="http://www.w3.org/2000/svg">
<path d="M33.0002 18.5C33.0002 20.4015 33.4521 22.2757 34.3185 23.9682C35.185 25.6608 36.4412 27.1232 37.9837 28.2349C39.5262 29.3467 41.3109 30.076 43.1905 30.3628C45.0702 30.6495 46.9911 30.4855 48.795 29.8842C50.5988 29.283 52.234 28.2616 53.5656 26.9044C54.8973 25.5472 55.8875 23.893 56.4544 22.0781C57.0213 20.2631 57.1489 18.3394 56.8265 16.4655C56.5041 14.5917 55.7411 12.8212 54.6002 11.3C54.1898 10.7566 53.7349 10.2482 53.2402 9.78004C53.0546 9.57752 52.8292 9.41541 52.5782 9.30384C52.3271 9.19226 52.0557 9.13361 51.781 9.13153C51.5063 9.12946 51.2341 9.18401 50.9814 9.29178C50.7286 9.39955 50.5008 9.55823 50.3122 9.75793C50.1235 9.95763 49.978 10.1941 49.8847 10.4525C49.7914 10.7109 49.7524 10.9858 49.77 11.2599C49.7877 11.5341 49.8616 11.8017 49.9873 12.046C50.1129 12.2904 50.2875 12.5062 50.5002 12.68C50.8211 13.001 51.1217 13.3417 51.4002 13.7C52.4815 15.1418 53.0444 16.9064 52.9975 18.7079C52.9507 20.5094 52.297 22.2424 51.1422 23.626C49.9875 25.0096 48.3995 25.9628 46.6353 26.3312C44.8712 26.6995 43.0344 26.4614 41.4225 25.6555C39.8106 24.8495 38.5181 23.5229 37.7543 21.8906C36.9905 20.2583 36.8002 18.416 37.2142 16.662C37.6283 14.9081 38.6224 13.3453 40.0356 12.2269C41.4487 11.1085 43.1981 10.5 45.0002 10.5C45.1195 10.5188 45.241 10.5188 45.3602 10.5C45.811 10.6183 46.29 10.5612 46.7002 10.34C47.1696 10.0933 47.5217 9.67025 47.6792 9.16395C47.8367 8.65764 47.7867 8.10951 47.5402 7.64004C46.2828 5.23996 44.3313 3.27451 41.9402 2.00004C41.1818 1.58459 40.376 1.26225 39.5402 1.04004C36.7771 0.24165 33.8171 0.48357 31.2202 1.72004L30.2202 2.22004C29.2971 2.69784 28.4083 3.23914 27.5602 3.84004C26.8548 4.35529 26.0038 4.63296 25.1302 4.63296C24.2567 4.63296 23.4057 4.35529 22.7002 3.84004C21.8464 3.24785 20.9582 2.7069 20.0402 2.22004L19.0002 1.64004C17.1277 0.734234 15.0498 0.336866 12.9751 0.487814C10.9004 0.638763 8.90197 1.33272 7.18023 2.50004C5.1283 3.90473 3.47875 5.8209 2.39482 8.05891C1.31089 10.2969 0.830174 12.7792 1.00023 15.26V15.5C1.16938 18.3377 1.8468 21.1219 3.00023 23.72C3.55065 24.9747 4.2204 26.1735 5.00023 27.3C4.10876 31.4001 4.17721 35.6508 5.20023 39.72C6.21834 43.7948 8.20843 47.5622 11.0002 50.7C11.6075 51.3681 12.37 51.8764 13.2202 52.18C14.0348 52.4761 14.9097 52.5671 15.7677 52.4451C16.6258 52.323 17.4406 51.9916 18.1402 51.48C18.896 50.9213 19.5042 50.1866 19.9119 49.3397C20.3197 48.4929 20.5147 47.5593 20.4802 46.62C20.4802 44 20.7002 40.46 22.6202 38.44C23.2426 37.6153 24.16 37.0635 25.1802 36.9C26.2077 37.0586 27.133 37.6109 27.7602 38.44C29.7602 40.44 29.9802 44 29.9002 46.62C29.8657 47.5593 30.0608 48.4929 30.4685 49.3397C30.8763 50.1866 31.4844 50.9213 32.2402 51.48C33.1399 52.1389 34.2251 52.4959 35.3402 52.5C35.9546 52.5027 36.5644 52.3943 37.1402 52.18C37.9932 51.8817 38.7568 51.3726 39.3602 50.7C42.1724 47.5705 44.1772 43.8012 45.2002 39.72C45.627 38.0491 45.8949 36.3415 46.0002 34.62C46.016 34.3574 45.9799 34.0942 45.8939 33.8455C45.808 33.5969 45.6739 33.3675 45.4993 33.1707C45.3247 32.9738 45.1131 32.8133 44.8765 32.6982C44.6398 32.5831 44.3829 32.5158 44.1202 32.5C43.5898 32.4682 43.0684 32.6484 42.6709 33.001C42.2733 33.3535 42.0321 33.8496 42.0002 34.38C41.9153 35.852 41.6876 37.3122 41.3202 38.74C40.4535 42.1852 38.7654 45.3693 36.4002 48.02C36.232 48.1957 36.0271 48.3323 35.8002 48.42C35.5979 48.4934 35.3805 48.5153 35.1675 48.4839C34.9546 48.4525 34.7528 48.3687 34.5802 48.24C34.3569 48.0611 34.179 47.832 34.0609 47.5714C33.9427 47.3107 33.8877 47.0259 33.9002 46.74C34.0402 41.84 32.9602 38.12 30.6602 35.7C29.9868 34.8834 29.153 34.2136 28.2105 33.732C27.2679 33.2504 26.2366 32.9673 25.1802 32.9C24.1268 32.9676 23.0985 33.251 22.1593 33.7327C21.22 34.2144 20.3898 34.884 19.7202 35.7C17.4202 38.12 16.3202 41.84 16.4802 46.74C16.4938 47.0281 16.4371 47.3151 16.3152 47.5764C16.1933 47.8377 16.0097 48.0654 15.7802 48.24C15.6099 48.3654 15.4116 48.4473 15.2025 48.4786C14.9934 48.51 14.7798 48.4899 14.5802 48.42C14.3507 48.3375 14.1447 48.2002 13.9802 48.02C11.5934 45.3755 9.88441 42.191 9.00023 38.74C8.05207 35.0195 8.05207 31.1206 9.00023 27.4C9.07442 27.1138 9.08419 26.8146 9.02886 26.5241C8.97353 26.2336 8.85446 25.959 8.68023 25.72C7.87936 24.5997 7.20839 23.3919 6.68023 22.12C5.71289 19.9668 5.14369 17.6562 5.00023 15.3H3.00023L5.00023 15C4.89897 13.237 5.25005 11.4774 6.02014 9.88819C6.79022 8.29901 7.95375 6.93306 9.40023 5.92004C10.5573 5.11498 11.9066 4.62994 13.3115 4.51404C14.7163 4.39814 16.1268 4.65549 17.4002 5.26004L18.2202 5.68004C18.9963 6.08306 19.7446 6.5374 20.4602 7.04004C21.8405 8.02557 23.4942 8.55534 25.1902 8.55534C26.8863 8.55534 28.5399 8.02557 29.9202 7.04004C30.6358 6.5374 31.3841 6.08306 32.1602 5.68004L33.0002 5.26004C34.7325 4.4494 36.698 4.28621 38.5402 4.80004C39.0912 4.96637 39.6266 5.18052 40.1402 5.44004C40.8711 5.82385 41.5444 6.30861 42.1402 6.88004C39.5382 7.51858 37.2247 9.00953 35.5683 11.1154C33.9119 13.2212 33.0079 15.8208 33.0002 18.5Z" fill="white"/>
<path d="M45.0002 24.5001C45.5307 24.5001 46.0394 24.2893 46.4145 23.9143C46.7895 23.5392 47.0002 23.0305 47.0002 22.5001V20.5001H49.0002C49.5307 20.5001 50.0394 20.2893 50.4145 19.9143C50.7895 19.5392 51.0002 19.0305 51.0002 18.5001C51.0002 17.9696 50.7895 17.4609 50.4145 17.0858C50.0394 16.7108 49.5307 16.5001 49.0002 16.5001H47.0002V14.5001C47.0002 13.9696 46.7895 13.4609 46.4145 13.0858C46.0394 12.7108 45.5307 12.5001 45.0002 12.5001C44.4698 12.5001 43.9611 12.7108 43.586 13.0858C43.211 13.4609 43.0002 13.9696 43.0002 14.5001V16.5001H41.0002C40.4698 16.5001 39.9611 16.7108 39.586 17.0858C39.211 17.4609 39.0002 17.9696 39.0002 18.5001C39.0002 19.0305 39.211 19.5392 39.586 19.9143C39.9611 20.2893 40.4698 20.5001 41.0002 20.5001H43.0002V22.5001C43.0002 23.0305 43.211 23.5392 43.586 23.9143C43.9611 24.2893 44.4698 24.5001 45.0002 24.5001Z" fill="white"/>
</svg>
