<svg width="64" height="64" viewBox="0 0 64 64" fill="none" xmlns="http://www.w3.org/2000/svg">
<path d="M58.0236 22.8356C58.0785 22.499 58.0557 22.1547 57.9569 21.8277C57.8581 21.5006 57.6857 21.1988 57.4521 20.9439C57.2075 20.7067 56.9125 20.5239 56.5876 20.4084C56.2627 20.2929 55.9157 20.2473 55.5708 20.2749H48.6649V17.968C48.6649 17.3562 48.414 16.7694 47.9674 16.3368C47.5208 15.9042 46.9151 15.6611 46.2835 15.6611H36.7581C36.1265 15.6611 35.5208 15.9042 35.0742 16.3368C34.6276 16.7694 34.3767 17.3562 34.3767 17.968V20.2749H29.614V17.968C29.614 17.3562 29.3631 16.7694 28.9165 16.3368C28.4699 15.9042 27.8642 15.6611 27.2326 15.6611H17.7072C17.0756 15.6611 16.4699 15.9042 16.0233 16.3368C15.5767 16.7694 15.3258 17.3562 15.3258 17.968V20.2749H10.7536C10.7418 20.1136 10.7418 19.9518 10.7536 19.7905C10.6082 17.9038 10.9706 16.0128 11.8054 14.3024C12.6402 12.592 13.9188 11.1206 15.5163 10.0322C16.7027 9.2444 18.0828 8.77404 19.5171 8.66872C20.9514 8.56339 22.3889 8.82685 23.6844 9.43243L24.5655 9.87075C25.3889 10.2996 26.1842 10.7773 26.9468 11.301C28.467 12.3894 30.3075 12.9767 32.1977 12.9767C34.088 12.9767 35.9285 12.3894 37.4486 11.301C38.2113 10.7773 39.0066 10.2996 39.83 9.87075L40.7111 9.43243C41.8023 8.92003 42.9991 8.65383 44.2117 8.65383C45.4243 8.65383 46.6211 8.92003 47.7123 9.43243C49.0926 10.0895 50.3058 11.0342 51.2651 12.1987C52.2243 13.3633 52.9059 14.719 53.2609 16.1686C53.3178 16.4822 53.4412 16.7809 53.6231 17.046C53.805 17.3111 54.0416 17.5368 54.318 17.7091C54.5944 17.8813 54.9046 17.9962 55.2291 18.0466C55.5536 18.097 55.8853 18.0818 56.2034 18.002C56.5215 17.9222 56.8192 17.7794 57.0775 17.5827C57.3359 17.386 57.5495 17.1396 57.7048 16.8591C57.8601 16.5785 57.9538 16.2699 57.98 15.9525C58.0062 15.6352 57.9643 15.3161 57.8569 15.0152C57.3296 12.8873 56.3154 10.9014 54.8892 9.20439C53.463 7.50734 51.6614 6.14251 49.6174 5.21078C47.8919 4.41366 46.0043 4 44.0926 4C42.181 4 40.2934 4.41366 38.5679 5.21078L37.4963 5.74137C36.4933 6.27024 35.5232 6.85567 34.591 7.49463C33.8807 8.01303 33.0156 8.29341 32.1263 8.29341C31.237 8.29341 30.3719 8.01303 29.6616 7.49463C28.7364 6.84551 27.7656 6.25967 26.7563 5.74137L25.6847 5.21078C23.6582 4.28253 21.4163 3.8836 19.1815 4.05356C16.9468 4.22352 14.7966 4.95645 12.9444 6.17968C10.6486 7.70428 8.80362 9.78342 7.59232 12.2112C6.38103 14.639 5.8454 17.3312 6.0385 20.0212V20.2749C6.18578 23.308 6.88724 26.2917 8.11028 29.0873C8.67695 30.4159 9.37056 31.6903 10.1821 32.8938C9.41235 36.4699 9.32358 40.1522 9.92012 43.7593C10.0114 44.3052 10.3021 44.8011 10.7392 45.1568C11.1762 45.5125 11.7307 45.7042 12.3015 45.6971H12.6825C13.3042 45.5955 13.8589 45.2591 14.225 44.7617C14.5911 44.2644 14.7386 43.6467 14.6352 43.0442C14.0922 39.7046 14.2379 36.2938 15.0639 33.0091C15.1483 32.6875 15.1601 32.352 15.0984 32.0255C15.0368 31.699 14.9031 31.3893 14.7067 31.1174C13.7973 29.8961 13.0306 28.5808 12.4205 27.1957C12.0949 26.4437 11.8165 25.6733 11.5871 24.8888H15.3258V29.5026C15.3258 30.1144 15.5767 30.7012 16.0233 31.1338C16.4699 31.5665 17.0756 31.8095 17.7072 31.8095H27.2326C27.8642 31.8095 28.4699 31.5665 28.9165 31.1338C29.3631 30.7012 29.614 30.1144 29.614 29.5026V24.8888H34.3767V29.5026C34.3767 30.1144 34.6276 30.7012 35.0742 31.1338C35.5208 31.5665 36.1265 31.8095 36.7581 31.8095H46.2835C46.9151 31.8095 47.5208 31.5665 47.9674 31.1338C48.414 30.7012 48.6649 30.1144 48.6649 29.5026V24.8888H52.6894C52.0453 27.0918 51.0229 29.1741 49.665 31.0482C49.4645 31.3183 49.3266 31.6271 49.2608 31.9537C49.1951 32.2802 49.203 32.6166 49.284 32.9399C50.3034 36.901 50.3034 41.044 49.284 45.0051C48.34 48.6692 46.4933 52.0571 43.9021 54.8787C43.7522 55.0418 43.5645 55.1683 43.3544 55.2478C43.184 55.3093 42.9999 55.3267 42.8203 55.2984C42.6408 55.2701 42.472 55.197 42.3304 55.0863C42.0996 54.9135 41.916 54.6886 41.7956 54.4312C41.6752 54.1739 41.6217 53.8919 41.6398 53.6098C42.1262 49.3474 40.86 45.0709 38.1154 41.7062C37.3792 40.8437 36.4698 40.1351 35.4423 39.6236C34.4148 39.112 33.2907 38.8081 32.1382 38.7303C30.9632 38.8016 29.8165 39.1091 28.771 39.6334C27.7255 40.1577 26.8042 40.8872 26.0657 41.7754C23.3313 45.1118 22.042 49.3469 22.4699 53.5868C22.488 53.8688 22.4345 54.1508 22.3141 54.4082C22.1937 54.6656 22.0101 54.8904 21.7793 55.0632C21.6357 55.17 21.467 55.2406 21.2883 55.2688C21.1096 55.297 20.9265 55.2818 20.7553 55.2247C20.5391 55.1451 20.3496 55.0094 20.2076 54.8325C18.6889 53.1785 17.4365 51.3119 16.4927 49.2959C16.2274 48.7392 15.7447 48.3073 15.1507 48.0953C14.5568 47.8833 13.9002 47.9086 13.3255 48.1655C12.7507 48.4225 12.3049 48.8901 12.0861 49.4655C11.8672 50.0409 11.8933 50.677 12.1586 51.2337C13.317 53.6505 14.8245 55.8953 16.6356 57.9007C17.2739 58.6327 18.0931 59.1962 19.0169 59.5386C19.9169 59.8683 20.888 59.9734 21.8409 59.8444C22.7938 59.7155 23.698 59.3564 24.4702 58.8004C25.3527 58.2002 26.0673 57.3968 26.5495 56.4625C27.0317 55.5282 27.2664 54.4924 27.2326 53.4484C26.9338 50.3889 27.7789 47.3272 29.614 44.8205C30.237 44.0419 31.1368 43.5156 32.1382 43.3441C33.2098 43.3441 34.1862 44.3591 34.7101 44.9128C36.5032 47.4349 37.3057 50.4953 36.9724 53.5406C36.9279 54.5765 37.148 55.607 37.6133 56.5406C38.0785 57.4742 38.7745 58.2822 39.6395 58.8927C40.6288 59.6115 41.832 60 43.0687 60C43.769 59.9478 44.4543 59.776 45.0928 59.4925C46.0139 59.1341 46.8312 58.564 47.4742 57.8315C50.5503 54.477 52.7547 50.4591 53.9038 46.1124C55.0134 41.7646 55.0948 37.2302 54.142 32.8476C56.1653 29.8202 57.4894 26.4049 58.0236 22.8356ZM24.8512 27.1957H20.0885V20.2749H24.8512V27.1957ZM43.9021 27.1957H39.1394V20.2749H43.9021V27.1957Z" fill="white"/>
</svg>
