<svg width="55" height="56" viewBox="0 0 55 56" fill="none" xmlns="http://www.w3.org/2000/svg">
<path d="M45.8735 17.0616L38.2135 24.6216C38.0869 24.7576 37.929 24.8606 37.7535 24.9216L29.0535 28.5816C28.4157 28.8521 27.8379 29.2464 27.3535 29.7416L5.63349 51.1616C5.47629 51.3167 5.26434 51.4037 5.04349 51.4037C4.82265 51.4037 4.61069 51.3167 4.45349 51.1616L4.21349 50.9016C4.1373 50.8254 4.07685 50.735 4.03561 50.6355C3.99437 50.536 3.97315 50.4293 3.97315 50.3216C3.97315 50.2139 3.99437 50.1072 4.03561 50.0077C4.07685 49.9082 4.1373 49.8177 4.21349 49.7416C4.42402 49.5638 4.59553 49.3443 4.71724 49.0971C4.83896 48.8498 4.90827 48.5801 4.92081 48.3048C4.93336 48.0295 4.88887 47.7546 4.79014 47.4973C4.69142 47.24 4.54058 47.0058 4.34709 46.8096C4.15361 46.6133 3.92166 46.4592 3.66579 46.3568C3.40991 46.2545 3.13565 46.2061 2.86019 46.2147C2.58474 46.2234 2.31405 46.2888 2.06509 46.407C1.81614 46.5252 1.5943 46.6936 1.41349 46.9016C0.96539 47.3492 0.60991 47.8808 0.367373 48.4659C0.124836 49.051 0 49.6782 0 50.3116C0 50.945 0.124836 51.5722 0.367373 52.1573C0.60991 52.7424 0.96539 53.274 1.41349 53.7216L1.65349 53.9616C2.10113 54.4097 2.63271 54.7652 3.21782 55.0077C3.80293 55.2502 4.4301 55.3751 5.06349 55.3751C5.69688 55.3751 6.32406 55.2502 6.90917 55.0077C7.49428 54.7652 8.02585 54.4097 8.47349 53.9616L30.2135 32.5816C30.3401 32.4456 30.498 32.3426 30.6735 32.2816L39.3735 28.6216C40.0063 28.3509 40.5829 27.9643 41.0735 27.4816L48.7535 19.9016C48.94 19.7164 49.0882 19.4963 49.1896 19.2539C49.291 19.0115 49.3437 18.7515 49.3446 18.4887C49.3455 18.2259 49.2947 17.9655 49.195 17.7223C49.0953 17.4792 48.9487 17.2581 48.7635 17.0716C48.5783 16.8851 48.3582 16.7369 48.1158 16.6355C47.8734 16.5341 47.6134 16.4814 47.3506 16.4805C47.0878 16.4796 46.8274 16.5304 46.5842 16.6301C46.3411 16.7298 46.12 16.8764 45.9335 17.0616H45.8735Z" fill="white"/>
<path d="M52.8135 9.04159L52.5735 8.80159C52.1313 8.34721 51.6027 7.98576 51.0188 7.73848C50.435 7.4912 49.8076 7.36306 49.1735 7.36159C48.9339 7.34192 48.6931 7.34192 48.4535 7.36159L42.2135 1.08159C41.8388 0.709084 41.3319 0.5 40.8035 0.5C40.2751 0.5 39.7682 0.709084 39.3935 1.08159L26.4935 13.7016C26.121 14.0763 25.9119 14.5832 25.9119 15.1116C25.9119 15.64 26.121 16.1469 26.4935 16.5216L31.4335 21.5416L24.8335 24.3216C24.1993 24.5897 23.6223 24.9767 23.1335 25.4616L5.29351 43.0616C5.01145 43.3413 4.81909 43.6987 4.74095 44.0882C4.66281 44.4777 4.70243 44.8817 4.85476 45.2486C5.0071 45.6154 5.26524 45.9286 5.59628 46.1483C5.92732 46.3679 6.31626 46.4839 6.71351 46.4816C7.23818 46.4794 7.74098 46.2711 8.1135 45.9016L25.9335 28.3016C26.0708 28.1789 26.2259 28.0777 26.3935 28.0016L35.0935 24.3416L35.4935 24.1416C35.8086 24.0527 36.097 23.8879 36.3335 23.6616L48.5735 11.6616C48.6497 11.5855 48.7401 11.5251 48.8396 11.4839C48.9391 11.4427 49.0458 11.4215 49.1535 11.4216C49.3698 11.4276 49.5762 11.513 49.7335 11.6616L49.9735 11.9216C50.05 11.9933 50.1108 12.0801 50.1521 12.1765C50.1934 12.2729 50.2143 12.3767 50.2135 12.4816C50.2094 12.6983 50.1237 12.9054 49.9735 13.0616C49.763 13.2394 49.5915 13.4589 49.4698 13.7061C49.348 13.9534 49.2787 14.2231 49.2662 14.4984C49.2536 14.7737 49.2981 15.0486 49.3969 15.3059C49.4956 15.5632 49.6464 15.7973 49.8399 15.9936C50.0334 16.1898 50.2653 16.344 50.5212 16.4463C50.7771 16.5487 51.0513 16.5971 51.3268 16.5885C51.6023 16.5798 51.873 16.5143 52.1219 16.3961C52.3709 16.2779 52.5927 16.1096 52.7735 15.9016C53.2321 15.4584 53.5962 14.9268 53.8437 14.339C54.0912 13.7512 54.217 13.1194 54.2135 12.4816C54.2203 11.8439 54.1001 11.2113 53.8597 10.6207C53.6193 10.0301 53.2637 9.49324 52.8135 9.04159ZM32.2135 13.7416C32.3896 13.9617 32.6102 14.1421 32.8609 14.2709C33.1116 14.3998 33.3867 14.4742 33.6682 14.4892C33.9496 14.5043 34.2311 14.4597 34.4941 14.3584C34.7572 14.2571 34.9958 14.1013 35.1944 13.9013C35.393 13.7013 35.5471 13.4615 35.6465 13.1978C35.746 12.934 35.7886 12.6523 35.7715 12.3709C35.7544 12.0896 35.6781 11.815 35.5474 11.5652C35.4168 11.3154 35.2348 11.0961 35.0135 10.9216L36.4335 9.52159C36.6187 9.71056 36.8396 9.8609 37.0834 9.96389C37.3271 10.0669 37.5889 10.1205 37.8535 10.1216C38.3782 10.1194 38.881 9.91107 39.2535 9.54159C39.626 9.16686 39.8351 8.65996 39.8351 8.13159C39.8351 7.60321 39.626 7.09631 39.2535 6.72159L40.6735 5.30159L44.8935 9.58159L34.8935 19.4216L30.7335 15.1416L32.2135 13.7416Z" fill="white"/>
</svg>
