<?xml version="1.0" encoding="iso-8859-1"?>
<!-- Uploaded to: SVG Repo, www.svgrepo.com, Generator: SVG Repo Mixer Tools -->
<!DOCTYPE svg PUBLIC "-//W3C//DTD SVG 1.1//EN" "http://www.w3.org/Graphics/SVG/1.1/DTD/svg11.dtd">
<svg fill="#000000" version="1.1" id="Capa_1" xmlns="http://www.w3.org/2000/svg" xmlns:xlink="http://www.w3.org/1999/xlink" 
	 width="800px" height="800px" viewBox="0 0 450.906 450.906"
	 xml:space="preserve">
<g>
	<path d="M347.007,316.307l-13.688-0.031l-0.111-177.702c-0.118-11.457-8.204-24.512-18.408-29.721l-71.764-36.629
		c-2.306-1.176-7.779-3.63-7.779-6.538c0-14.805,0-55.881,0-55.881c0-5.415-4.391-9.804-9.804-9.804
		c-5.414,0-9.804,4.389-9.804,9.804c0,0,0,43.66,0,56.548c0,2.872-5.408,4.702-7.687,5.864l-71.85,36.64
		c-12.264,6.253-18.183,21.544-18.097,46.705l-0.327,160.746h-13.771c-12.975,0-23.529,10.556-23.529,23.529v10.971
		c0,12.975,10.555,23.529,23.529,23.529c0,0,51.223,0,69.514,0c2.375,0,2.62,1.553,2.62,2.354c0,0,0,10.764,0,14.352
		c0,1.938-1.495,1.835-1.495,1.835h-27.513c-12.974,0-23.528,10.555-23.528,23.529v10.971c0,12.974,10.555,23.53,23.528,23.53
		h156.82c12.975,0,23.528-10.557,23.528-23.53v-10.971c0-12.975-10.555-23.529-23.528-23.529h-27.726c0,0-1.283-0.105-1.283-1.313
		c0-3.719,0-14.873,0-14.873c0-0.8-0.174-2.354,1.451-2.354c16.061,0,70.684,0,70.684,0c12.976,0,23.529-10.555,23.529-23.529
		v-10.971C370.519,326.862,359.964,316.307,347.007,316.307z M259.169,376.688c0,0-0.019,20.842-0.019,27.789
		c0,4.188,3.593,4.084,3.593,4.084h41.119c4.324,0,7.843,3.518,7.843,7.843v10.971c0,4.325-3.519,7.843-7.843,7.843h-156.82
		c-4.324,0-7.843-3.519-7.843-7.843v-10.971c0-4.325,3.519-7.843,7.843-7.843c0,0,30.665,0,41.138,0
		c2.334,0,3.611-0.877,3.611-3.709c0-7.041-0.056-28.164-0.056-28.164c0-1.275,1.077-2.354,2.353-2.354h62.728
		C258.091,374.335,259.169,375.413,259.169,376.688z M354.833,350.807c0,4.324-3.52,7.842-7.845,7.842H103.917
		c-4.325,0-7.844-3.518-7.844-7.842v-10.972c0-4.323,3.519-7.842,7.844-7.842h25.681c0,0,3.752,0.274,3.752-3.474
		c0-11.815,0.083-43.994,0.104-52.668c0.004-1.392,0.852-2.179,2.164-2.179c24.25,0,89.834,0,89.834,0
		c4.333,0,7.842-3.512,7.842-7.843s-3.51-7.843-7.842-7.843c0,0-65.771,0-89.466,0c-0.941,0-2.494-0.259-2.494-2.821
		c0-6.266,0.063-18.092,0.063-25.062c0-2.875,2.562-2.975,2.562-2.975h130.895c4.332,0,7.843-3.512,7.843-7.843
		s-3.511-7.843-7.843-7.843c0,0-97.561,0-130.206,0c-2.685,0-3.219-1.214-3.219-3.173c0-5.583,0.06-22.333,0.06-22.333
		s-0.299-4.002,3.029-4.002c22.194,0,88.776,0,88.776,0c4.333,0,7.842-3.512,7.842-7.843c0-4.331-3.51-7.843-7.842-7.843
		c0,0-66.391,0-88.521,0c-3.084,0-3.226-2.22-3.253-3.395c-0.043-1.825,0.021-7.302,0.021-7.302
		c-0.043-12.686,1.576-28.661,9.537-32.72l71.851-36.64c2.595-1.323,6.386-2.082,10.402-2.082c4.021,0,7.816,0.76,10.414,2.086
		l71.765,36.629c5.099,2.603,9.796,10.187,9.854,15.836c0,0,0.119,141.603,0.119,188.942c0,3.666,2.789,4.326,4.874,4.326
		c6.118,0,24.474,0.064,24.474,0.064c4.325,0,7.844,3.518,7.844,7.842v10.971H354.833z"/>
</g>
</svg>