<svg width="20" height="20" viewBox="0 0 20 20" fill="none" xmlns="http://www.w3.org/2000/svg">
<g clip-path="url(#clip0_79_452)">
<path d="M2.68745 10C2.68744 9.7653 2.76397 9.57142 2.9171 9.41829C3.07092 9.26447 3.26521 9.18753 3.49994 9.18753L9.18744 9.18753L9.18744 3.50003C9.18743 3.26531 9.26435 3.07139 9.41819 2.91828C9.5713 2.76445 9.76521 2.68753 9.99994 2.68753C10.2347 2.68754 10.4289 2.76445 10.5828 2.91829C10.7359 3.07139 10.8124 3.26531 10.8124 3.50003L10.8124 9.18753L16.4999 9.18753C16.7347 9.18754 16.9286 9.26446 17.0817 9.41825C17.2355 9.5714 17.3125 9.76534 17.3125 10.0001C17.3125 10.2348 17.2355 10.429 17.0817 10.5829C16.9286 10.736 16.7347 10.8126 16.5 10.8126L10.8124 10.8125L10.8125 16.5001C10.8125 16.7348 10.7359 16.929 10.5828 17.0829C10.429 17.2359 10.2347 17.3125 9.99997 17.3125C9.76526 17.3125 9.5713 17.2359 9.41817 17.0828C9.26435 16.929 9.18746 16.7347 9.18745 16.5L9.18744 10.8125L3.49995 10.8125C3.26523 10.8125 3.07091 10.736 2.91713 10.5828C2.76396 10.4291 2.68746 10.2347 2.68745 10Z" fill="#1E1E1E"/>
</g>
<defs>
<clipPath id="clip0_79_452">
<rect width="13" height="13" fill="white" transform="translate(10 0.807617) rotate(45)"/>
</clipPath>
</defs>
</svg>
