<svg width="181" height="28" viewBox="0 0 181 28" fill="none" xmlns="http://www.w3.org/2000/svg">
<path d="M3.09333 15.1238V24.2593H6.10813V18.1174H17.7444L21.3778 24.2593H24.818L21.2618 18.1174H24.8953L30.1528 27.3296H19.5992L15.9657 21.1877H9.12292V27.3296H0V12.0522L22.6913 12.1278C28.5916 11.3743 28.4599 3.35831 22.2321 2.98996L3.09333 2.99356V6.06391H22.7698C23.0139 6.06391 23.5069 6.51985 23.6459 6.72982C24.1437 7.47611 23.8827 8.57994 23.0586 8.96269C22.9946 8.99268 22.5644 9.13546 22.5378 9.13546H0V0H23.3885C24.4893 0 26.5253 1.01745 27.3712 1.72655C32.6709 6.1731 29.7733 14.6115 23.0006 15.2006C16.3657 15.1646 9.715 15.2858 3.09212 15.125L3.09333 15.1238Z" fill="black"/>
<path d="M35.0283 14.6094C35.0283 7.90114 40.0079 2.76709 46.9546 2.76709C53.9013 2.76709 58.8168 7.68037 58.8168 14.5458C58.8168 21.4112 53.8058 26.388 46.8905 26.388C39.9752 26.388 35.0283 21.4436 35.0283 14.6094ZM46.9232 21.3488C50.7294 21.3488 53.1086 18.2628 53.1086 14.577C53.1086 10.8911 50.8249 7.80515 46.9232 7.80515C43.0214 7.80515 40.7377 10.9235 40.7377 14.577C40.7377 18.2304 43.0529 21.3488 46.9232 21.3488Z" fill="black"/>
<path d="M66.6818 3.39673L76.3871 17.0651V3.39673H81.6845V25.7579H76.9587L67.2533 12.0895V25.7579H61.956V3.39673H66.6818Z" fill="black"/>
<path d="M100.049 3.39671V7.96324H90.8823V12.057H98.9709V16.6236H90.8823V21.1901H100.367V25.7566H85.4907V3.39551H100.05L100.049 3.39671Z" fill="black"/>
<path d="M108.168 3.39673L113.686 19.6484L119.204 3.39673H125.072L116.572 25.7579H110.546L102.045 3.39673H108.166H108.168Z" fill="black"/>
<path d="M127.388 3.39673H132.907V25.7579H127.388V3.39673Z" fill="black"/>
<path d="M147.466 2.76681C152.096 2.76681 156.189 5.28644 157.521 9.88417L152.129 11.0804C151.21 9.09588 149.623 7.80487 147.372 7.80487C143.661 7.80487 141.758 11.3012 141.758 14.6703C141.758 18.0394 143.661 21.3473 147.436 21.3473C149.751 21.3473 151.4 20.0875 152.353 18.0718L157.744 19.268C156.444 23.8981 152.162 26.3854 147.436 26.3854C140.838 26.3854 136.049 21.3461 136.049 14.7327C136.049 8.11922 140.648 2.7644 147.467 2.7644L147.466 2.76681Z" fill="black"/>
<path d="M165.956 3.39673V11.7739H174.964V3.39673H180.483V25.7579H174.964V16.6248H165.956V25.7579H160.438V3.39673H165.956Z" fill="black"/>
</svg>
