<svg width="45" height="45" viewBox="0 0 45 45" fill="none" xmlns="http://www.w3.org/2000/svg">
<path d="M39.6299 22.3799C41.605 18.936 42.5586 16.1239 43.1337 13.2733C43.9841 9.05741 42.0379 4.93914 38.8138 2.31136C37.4511 1.20076 35.8891 1.58021 35.0833 3.02579L33.2642 6.28935C31.8223 8.87614 31.1014 10.1695 31.2443 11.5408C31.3873 12.912 32.3596 14.0288 34.3042 16.2625L39.6299 22.3799ZM39.6299 22.3799C35.6323 29.3505 29.3587 35.6276 22.3799 39.6299M22.3799 39.6299C18.936 41.605 16.1239 42.5586 13.2733 43.1336C9.05744 43.9841 4.93916 42.0379 2.31139 38.8137C1.20078 37.4511 1.58023 35.8891 3.02581 35.0833L6.28937 33.2642C8.87616 31.8223 10.1696 31.1013 11.5408 31.2443C12.912 31.3873 14.0289 32.3596 16.2625 34.3042L22.3799 39.6299Z" stroke="#F4EBD0" stroke-width="3" stroke-linejoin="round"/>
</svg>
