<svg width="24" height="24" viewBox="0 0 24 24" fill="none" xmlns="http://www.w3.org/2000/svg">
<path d="M5 5.5C5 5.36739 5.05268 5.24021 5.14645 5.14645C5.24021 5.05268 5.36739 5 5.5 5H19.5C19.6326 5 19.7598 5.05268 19.8536 5.14645C19.9473 5.24021 20 5.36739 20 5.5C20 5.63261 19.9473 5.75979 19.8536 5.85355C19.7598 5.94732 19.6326 6 19.5 6H5.5C5.36739 6 5.24021 5.94732 5.14645 5.85355C5.05268 5.75979 5 5.63261 5 5.5ZM5 11.5C5 11.3674 5.05268 11.2402 5.14645 11.1464C5.24021 11.0527 5.36739 11 5.5 11H19.5C19.6326 11 19.7598 11.0527 19.8536 11.1464C19.9473 11.2402 20 11.3674 20 11.5C20 11.6326 19.9473 11.7598 19.8536 11.8536C19.7598 11.9473 19.6326 12 19.5 12H5.5C5.36739 12 5.24021 11.9473 5.14645 11.8536C5.05268 11.7598 5 11.6326 5 11.5ZM5.5 17C5.36739 17 5.24021 17.0527 5.14645 17.1464C5.05268 17.2402 5 17.3674 5 17.5C5 17.6326 5.05268 17.7598 5.14645 17.8536C5.24021 17.9473 5.36739 18 5.5 18H19.5C19.6326 18 19.7598 17.9473 19.8536 17.8536C19.9473 17.7598 20 17.6326 20 17.5C20 17.3674 19.9473 17.2402 19.8536 17.1464C19.7598 17.0527 19.6326 17 19.5 17H5.5Z" fill="#F4EBD0"/>
</svg>
